<svg version="1.1" id="Layer_1" xmlns="http://www.w3.org/2000/svg" x="0" y="0" viewBox="0 0 512 512" style="enable-background:new 0 0 512 512" xml:space="preserve"><circle cx="256" cy="256" r="256" style="fill:#34a853"/><path d="m386.2 364.9-81.5-81.5c11-15.2 17.6-33.6 17.6-53.6 0-51-41.4-92.4-92.4-92.4-51.1 0-92.5 41.4-92.5 92.4 0 51.1 41.4 92.5 92.5 92.5 20 0 38.4-6.7 53.6-17.6l81.5 81.5 21.2-21.3zM165.9 229.8c0-35.4 28.6-64 64-64s64 28.6 64 64-28.6 64-64 64-64-28.6-64-64z" style="fill:#fff"/></svg>